<?xml version="1.0" encoding="utf-8"?>
<!-- Generator: Adobe Illustrator 21.1.0, SVG Export Plug-In . SVG Version: 6.00 Build 0)  -->
<svg version="1.1" id="Layer_1" xmlns="http://www.w3.org/2000/svg" xmlns:xlink="http://www.w3.org/1999/xlink" x="0px" y="0px"
	 viewBox="0 0 300 68" style="enable-background:new 0 0 300 68;" xml:space="preserve">
<style type="text/css">
	.st0{fill:#323248;}
	.st1{fill:#D4765D;}
	.st2{fill:#C15C48;}
</style>
<g>
	<g>
		<path class="st0" d="M285.2,28.2c-6.1,0-10.6,4.7-10.6,11.3s4.4,11.3,10.6,11.3c3.5,0,6.4-1.3,7.8-2.5c1.1-0.9,1.2-1.1,0.3-2.3
			c-0.1-0.2-0.7-1-0.9-1.2c-0.7-1-1.1-0.8-2.1-0.2l-0.2,0.1c-1.6,1-3.1,1.4-4.7,1.4c-2.8,0-5.5-2.4-6-5.2h13.8
			c1.1,0,1.5-0.4,1.6-1.4c0.1-0.4,0.1-1.1,0.1-1.5C295,32.4,290.9,28.2,285.2,28.2z M279.6,36.8c0.6-2.5,2.9-4.2,5.6-4.2
			c2.4,0,4.5,1.8,4.9,4.2H279.6z"/>
		<path class="st0" d="M116.3,28.2c-6.1,0-11,5-11,11.2c0,6.3,4.9,11.3,11,11.3c6.1,0,11-5.1,11-11.3
			C127.3,33.2,122.4,28.2,116.3,28.2z M116.3,46.1c-3.4,0-6.1-3-6.1-6.7c0-3.7,2.7-6.6,6.1-6.6c3.4,0,6.1,2.9,6.1,6.6
			C122.4,43.2,119.7,46.1,116.3,46.1z"/>
		<path class="st0" d="M138.8,32c-3.9-1.5-6-3.1-6-5.7c0-1.7,1.4-4.1,5.4-4.1c2.8,0,6.1,2.1,6.4,2.3c0.7,0.4,1.3,0.1,1.7-0.5
			c0.4-0.5,0.8-1.2,1.2-1.7c0.5-0.7,0.1-1.3-0.3-1.5c-0.5-0.3-4-2.7-8.8-2.7c-7.5,0-10.4,4.9-10.4,8.4c0,5.3,3.8,7.7,8.6,9.6
			c4.7,1.9,7.2,3.6,7.2,6.3c0,2.3-2.1,4.2-5.4,4.2c-3.7,0-7.3-2.9-7.6-3.1c-0.5-0.4-1.2-0.2-1.6,0.4c-0.4,0.6-0.8,1.3-1.2,1.9
			c-0.5,0.8-0.1,1.1,0.3,1.5c0.8,0.7,4.4,3.6,10.2,3.6c6.2,0,10.6-3.9,10.6-8.6C149,36.7,144.3,34.2,138.8,32z"/>
		<path class="st0" d="M102.4,43.1c-0.3-0.2-0.7-0.3-1,0c-2.1,1.7-4.3,3-7.5,3c-6.2,0-11-5.4-11-11.7c0-6.3,4.7-11.8,10.9-11.8
			c2.7,0,5.5,1.2,7.5,3c0.4,0.4,0.8,0.4,1.1,0l1.9-2c0.3-0.4,0.3-0.9,0-1.3c-3-2.7-6.2-4.2-10.6-4.2C85,18.1,78,25.4,78,34.5
			s7,16.3,15.7,16.3c3.9,0,7.6-1.4,10.6-4.4c0.3-0.3,0.4-0.9,0-1.2L102.4,43.1z"/>
		<path class="st0" d="M237.8,18.1h-2.5c-0.6,0-1.1,0.5-1.1,1.1v10.8c-1.7-1.2-3.7-1.9-5.9-1.9c-5.9,0-10.7,5-10.7,11.2
			c0,6.3,4.8,11.3,10.7,11.3c2.2,0,4.2-0.7,5.9-1.9v0.2c0,0.6,0.5,1.1,1.1,1.1h2.5c0.6,0,1.1-0.5,1.1-1.1V19.3
			C238.9,18.7,238.4,18.1,237.8,18.1z M228.2,46.1c-3.3,0-5.9-3-5.9-6.7c0-3.7,2.6-6.6,5.9-6.6c3.3,0,5.9,2.9,5.9,6.6
			C234.1,43.2,231.5,46.1,228.2,46.1z"/>
		<path class="st0" d="M205.3,28.2c-6.1,0-10.6,4.7-10.6,11.3s4.4,11.3,10.6,11.3c3.5,0,6.4-1.3,7.8-2.5c1.1-0.9,1.2-1.1,0.3-2.3
			c-0.1-0.2-0.7-1-0.9-1.2c-0.7-1-1.1-0.8-2.1-0.2l-0.2,0.1c-1.6,1-3.1,1.4-4.7,1.4c-2.8,0-5.5-2.4-6-5.2h13.8
			c1.1,0,1.5-0.4,1.6-1.4c0.1-0.4,0.1-1.1,0.1-1.5C215.1,32.4,211,28.2,205.3,28.2z M199.7,36.8c0.6-2.5,2.9-4.2,5.6-4.2
			c2.4,0,4.5,1.8,4.9,4.2H199.7z"/>
		<path class="st0" d="M183.7,28.2c-2.8,0-4.9,1.1-6.1,2V19.3c0-0.6-0.5-1.1-1.1-1.1h-2.5c-0.6,0-1.1,0.5-1.1,1.1v29.8
			c0,0.6,0.5,1.1,1.1,1.1h2.5c0.6,0,1.1-0.5,1.1-1.1V35.4c0.6-0.6,2.9-2.4,5.9-2.4c2.6,0,3.9,1.7,3.9,5v11.2c0,0.6,0.5,1.1,1.1,1.1
			h2.6c0.6,0,1.1-0.5,1.1-1.1V38C192.2,31.7,189.1,28.2,183.7,28.2z"/>
		<path class="st0" d="M169.9,43.9l-0.6-0.4c-0.9-0.7-1.3-0.9-2.4,0.2c-0.1,0.1-0.3,0.2-0.4,0.4c-1,1-2.1,2.1-4.5,2.1
			c-3.4,0-6-2.9-6-6.6c0-3.7,2.7-6.5,6.1-6.5c1.6,0,3.1,0.7,4.2,1.9l0.1,0.1c0.1,0.1,0.1,0.1,0.2,0.2c0.6,0.6,1.1,1.1,2.2,0.1
			l0.9-0.8c1-0.9,1.2-1.2,0.3-2.4c-2-2.5-4.6-3.8-7.8-3.8c-6,0-11.1,5.2-11.1,11.3c0,6.3,4.8,11.2,11,11.2c3.4,0,6.5-1.7,8.3-4.6
			C171.1,45,170.8,44.6,169.9,43.9z"/>
		<path class="st0" d="M261.2,28.7h-2.1c-0.9,0-1.6,0-1.6,1.6l0,11.8c-0.5,2.4-2.5,4.2-4.9,4.2c-2.4,0-4.5-1.8-4.9-4.2l0-11.8
			c0-1.6-0.8-1.6-1.6-1.6h-2.1c-0.6,0-1.1,0.5-1.1,1.1v11.1c0,0.1,0,0.2,0,0.3h0c0.2,5.5,4.2,9.5,9.8,9.5c5.6,0,9.6-4,9.8-9.5h0
			c0-0.1,0-0.2,0-0.3V29.8C262.3,29.2,261.8,28.7,261.2,28.7z"/>
		<path class="st0" d="M273.6,46.7l-0.3-0.3l0,0c-2.4-2.4-2.4-4.1-2.4-4.1v-23c0-0.6-0.5-1.1-1.1-1.1h-2.5c-0.6,0-1.1,0.5-1.1,1.1
			v23.4c0,2.1,0.8,4.1,2.3,5.6l1.8,1.8c0.4,0.4,1.2,0.4,1.6,0l1.8-1.8C274,47.9,274,47.2,273.6,46.7z"/>
	</g>
	<g>
		<g>
			<path class="st1" d="M55.3,33.1c-2.9-0.5-5.7,1.4-6.3,4.3c-1.4,8-8.4,13.8-16.5,13.7c-9.2,0-16.7-7.6-16.7-16.8
				c0-9.2,7.6-16.7,16.8-16.7c0.7,0,1.4,0,2,0.1c3,0.4,5.6-1.7,6-4.7c0.4-3-1.7-5.6-4.7-6c-1.1-0.1-2.2-0.2-3.3-0.2
				C17.4,6.8,5.1,19.1,5,34.3C4.9,49.5,17.3,61.9,32.4,61.9c13.4,0,24.8-9.5,27.2-22.6C60.1,36.4,58.2,33.6,55.3,33.1z M30.4,27.9
				c-2.1-2.1-5.5-2.1-7.6,0c-2.1,2.1-2.1,5.5,0,7.6l9.8,9.8l26-26c2.1-2.1,2.1-5.5,0-7.6c-2.1-2.1-5.5-2.1-7.6,0L32.5,30L30.4,27.9z
				"/>
		</g>
		<polygon class="st2" points="32.5,30 40.1,37.7 35,27.5 		"/>
	</g>
</g>
</svg>
