<svg xmlns="http://www.w3.org/2000/svg" xmlns:xlink="http://www.w3.org/1999/xlink" viewBox="0 0 500 500"><defs><style>.a{fill:url(#a);}.b{fill:url(#b);}.c{fill:url(#c);}.d{fill:url(#d);}.e{fill:url(#e);}</style><linearGradient id="a" x1="404.71" y1="316.42" x2="502.58" y2="9.67" gradientUnits="userSpaceOnUse"><stop offset="0" stop-color="#ea6060"/><stop offset="1" stop-color="#f47f7f"/></linearGradient><linearGradient id="b" x1="119.55" y1="123.78" x2="236.41" y2="-3.3" gradientUnits="userSpaceOnUse"><stop offset="0" stop-color="#006dbc"/><stop offset="1" stop-color="#1a6de5"/></linearGradient><linearGradient id="c" x1="152.47" y1="348.25" x2="348.21" y2="151.06" gradientUnits="userSpaceOnUse"><stop offset="0" stop-color="#f37e5d"/><stop offset="1" stop-color="#f9a97d"/></linearGradient><linearGradient id="d" x1="173.32" y1="547.39" x2="399.73" y2="388.17" gradientUnits="userSpaceOnUse"><stop offset="0" stop-color="#835ce5"/><stop offset="1" stop-color="#d88cea"/></linearGradient><linearGradient id="e" x1="-6.56" y1="465.42" x2="100.07" y2="198.11" gradientUnits="userSpaceOnUse"><stop offset="0" stop-color="#18a4ea"/><stop offset="1" stop-color="#2bd3ef"/></linearGradient></defs><title>coschedule-suite-product-icon</title><rect class="a" x="393.98" width="106.02" height="367.82" rx="4.8"/><path class="b" d="M4.8,0H364.45a4.79,4.79,0,0,1,4.79,4.79v96.43a4.79,4.79,0,0,1-4.79,4.79H4.8a4.8,4.8,0,0,1-4.8-4.8V4.8A4.8,4.8,0,0,1,4.8,0Z"/><path class="c" d="M137,132.18H363a4.8,4.8,0,0,1,4.8,4.8V363a4.8,4.8,0,0,1-4.8,4.8H137a4.8,4.8,0,0,1-4.8-4.8V137A4.79,4.79,0,0,1,137,132.18Z"/><path class="d" d="M137,394a4.8,4.8,0,0,0-4.79,4.8V495.2A4.8,4.8,0,0,0,137,500H495.2a4.81,4.81,0,0,0,4.8-4.8V398.78a4.81,4.81,0,0,0-4.8-4.8Z"/><path class="e" d="M4.79,132.18h96.43A4.8,4.8,0,0,1,106,137V495.21a4.79,4.79,0,0,1-4.79,4.79H4.79A4.79,4.79,0,0,1,0,495.21V137a4.79,4.79,0,0,1,4.79-4.79Z"/></svg>